<svg xmlns="http://www.w3.org/2000/svg" xmlns:xlink="http://www.w3.org/1999/xlink" width="450" height="288" viewBox="0 0 450 288"><defs><path id="a" d="M5 0h438v290H5z"/><path id="d" d="M24 298V61C24 32.281 47.281 9 76 9h297c28.719 0 52 23.281 52 52v237"/><filter id="c" width="106.5%" height="109%" x="-3.2%" y="-3.8%" filterUnits="objectBoundingBox"><feOffset dy="2" in="SourceAlpha" result="shadowOffsetOuter1"/><feGaussianBlur in="shadowOffsetOuter1" result="shadowBlurOuter1" stdDeviation="4"/><feColorMatrix in="shadowBlurOuter1" values="0 0 0 0 0.125490196 0 0 0 0 0.0705882353 0 0 0 0 0.22745098 0 0 0 0.24 0"/></filter><path id="e" d="M16.545 9.33L13.17 5.955a1.125 1.125 0 0 0-.795-.33H11.25V4.5c0-.298-.119-.584-.33-.795L7.545.33A1.125 1.125 0 0 0 6.75 0H3.375a2.25 2.25 0 0 0-2.25 2.25v7.875a2.25 2.25 0 0 0 2.25 2.25H6.75v3.375A2.25 2.25 0 0 0 9 18h5.625a2.25 2.25 0 0 0 2.25-2.25v-5.625c0-.298-.119-.584-.33-.795zm-2.386.795h-1.784V8.341l1.784 1.784zM8.534 4.5H6.75V2.716L8.534 4.5zM6.75 7.875v2.25H3.375V2.25h2.25v2.813c0 .31.252.562.563.562H9a2.25 2.25 0 0 0-2.25 2.25zM9 15.75V7.875h2.25v2.813c0 .31.252.562.563.562h2.812v4.5H9z"/><path id="g" d="M16.545 9.33L13.17 5.955a1.125 1.125 0 0 0-.795-.33H11.25V4.5c0-.298-.119-.584-.33-.795L7.545.33A1.125 1.125 0 0 0 6.75 0H3.375a2.25 2.25 0 0 0-2.25 2.25v7.875a2.25 2.25 0 0 0 2.25 2.25H6.75v3.375A2.25 2.25 0 0 0 9 18h5.625a2.25 2.25 0 0 0 2.25-2.25v-5.625c0-.298-.119-.584-.33-.795zm-2.386.795h-1.784V8.341l1.784 1.784zM8.534 4.5H6.75V2.716L8.534 4.5zM6.75 7.875v2.25H3.375V2.25h2.25v2.813c0 .31.252.562.563.562H9a2.25 2.25 0 0 0-2.25 2.25zM9 15.75V7.875h2.25v2.813c0 .31.252.562.563.562h2.812v4.5H9z"/><path id="i" d="M17.95 8.662A9.366 9.366 0 0 0 9 2.25 9.366 9.366 0 0 0 .05 8.662c-.067.218-.067.451 0 .669A9.366 9.366 0 0 0 9 15.75a9.366 9.366 0 0 0 8.95-6.412c.069-.22.069-.456 0-.675zM9.563 5.625a1.687 1.687 0 1 1 0 3.375 1.687 1.687 0 0 1 0-3.375zM9 13.5A7.122 7.122 0 0 1 2.314 9a6.819 6.819 0 0 1 2.813-3.375 4.45 4.45 0 0 0-.627 2.25 4.5 4.5 0 0 0 9 0 4.45 4.45 0 0 0-.624-2.25A6.819 6.819 0 0 1 15.688 9 7.122 7.122 0 0 1 9 13.5z"/><path id="k" d="M5.625 1.125a1.125 1.125 0 0 1 0 2.25H4.5c-.621 0-1.125.504-1.125 1.125v9c0 .621.504 1.125 1.125 1.125h9c.621 0 1.125-.504 1.125-1.125v-1.125a1.125 1.125 0 0 1 2.25 0V13.5a3.375 3.375 0 0 1-3.375 3.375h-9A3.375 3.375 0 0 1 1.125 13.5v-9A3.375 3.375 0 0 1 4.5 1.125zm10.139 0a1.125 1.125 0 0 1 1.125 1.125v5.625a1.125 1.125 0 0 1-2.25 0v-2.91L10.934 8.67a1.125 1.125 0 1 1-1.59-1.59l3.704-3.705h-2.91a1.125 1.125 0 0 1 0-2.25z"/></defs><g fill="none" fill-rule="evenodd" transform="translate(1 -3)"><mask id="b" fill="#fff"><use xlink:href="#a"/></mask><g mask="url(#b)"><use fill="#000" filter="url(#c)" xlink:href="#d"/><use fill="#FFF" xlink:href="#d"/></g><g mask="url(#b)"><path fill="#FFF" stroke="#D5D5D5" stroke-width=".8" d="M55 80.6h339a4.4 4.4 0 0 1 4.4 4.4v204.4H50.6V85a4.4 4.4 0 0 1 4.4-4.4z"/><path fill="#FFF" d="M67 165h330v124H67z"/><g transform="translate(356 187)"><path d="M0 0h18v18H0z"/><mask id="f" fill="#fff"><use xlink:href="#e"/></mask><use fill="#000" fill-rule="nonzero" xlink:href="#e"/><g fill="#4A4A4F" mask="url(#f)"><path d="M0 0h18v18H0z"/></g></g><path fill="#20123A" fill-rule="nonzero" d="M71.617 265.766c0 .5-.163.914-.488 1.242-.326.328-.738.492-1.238.492s-.913-.164-1.239-.492c-.325-.328-.488-.742-.488-1.242s.163-.912.488-1.235c.326-.323.739-.484 1.239-.484.5 0 .912.161 1.238.484.325.323.488.735.488 1.235zm5.424 0c0 .5-.163.914-.488 1.242-.326.328-.739.492-1.239.492-.5 0-.912-.164-1.238-.492-.325-.328-.488-.742-.488-1.242s.163-.912.488-1.235c.326-.323.738-.484 1.238-.484s.913.161 1.239.484c.325.323.488.735.488 1.235zm5.424 0c0 .5-.163.914-.489 1.242-.325.328-.738.492-1.238.492s-.913-.164-1.238-.492c-.326-.328-.488-.742-.488-1.242s.162-.912.488-1.235c.325-.323.738-.484 1.238-.484s.913.161 1.238.484c.326.323.489.735.489 1.235zm5.424 0c0 .5-.163.914-.489 1.242-.325.328-.738.492-1.238.492s-.913-.164-1.238-.492c-.326-.328-.489-.742-.489-1.242s.163-.912.489-1.235c.325-.323.738-.484 1.238-.484s.913.161 1.238.484c.326.323.489.735.489 1.235zm5.423 0c0 .5-.162.914-.488 1.242-.325.328-.738.492-1.238.492s-.913-.164-1.239-.492c-.325-.328-.488-.742-.488-1.242s.163-.912.488-1.235c.326-.323.739-.484 1.239-.484.5 0 .913.161 1.238.484.326.323.488.735.488 1.235zm5.424 0c0 .5-.163.914-.488 1.242-.326.328-.738.492-1.238.492s-.913-.164-1.239-.492c-.325-.328-.488-.742-.488-1.242s.163-.912.488-1.235c.326-.323.739-.484 1.239-.484.5 0 .912.161 1.238.484.325.323.488.735.488 1.235zm5.424 0c0 .5-.163.914-.488 1.242-.326.328-.739.492-1.239.492-.5 0-.912-.164-1.238-.492-.325-.328-.488-.742-.488-1.242s.163-.912.488-1.235c.326-.323.738-.484 1.238-.484s.913.161 1.239.484c.325.323.488.735.488 1.235zm5.424 0c0 .5-.163.914-.489 1.242-.325.328-.738.492-1.238.492s-.913-.164-1.238-.492c-.326-.328-.488-.742-.488-1.242s.162-.912.488-1.235c.325-.323.738-.484 1.238-.484s.913.161 1.238.484c.326.323.489.735.489 1.235zm5.423 0c0 .5-.162.914-.488 1.242-.325.328-.738.492-1.238.492s-.913-.164-1.238-.492c-.326-.328-.489-.742-.489-1.242s.163-.912.489-1.235c.325-.323.738-.484 1.238-.484s.913.161 1.238.484c.326.323.488.735.488 1.235zm5.424 0c0 .5-.163.914-.488 1.242-.326.328-.738.492-1.238.492s-.913-.164-1.239-.492c-.325-.328-.488-.742-.488-1.242s.163-.912.488-1.235c.326-.323.739-.484 1.239-.484.5 0 .912.161 1.238.484.325.323.488.735.488 1.235zm5.424 0c0 .5-.163.914-.488 1.242-.326.328-.739.492-1.239.492-.5 0-.912-.164-1.238-.492-.325-.328-.488-.742-.488-1.242s.163-.912.488-1.235c.326-.323.738-.484 1.238-.484s.913.161 1.239.484c.325.323.488.735.488 1.235zm5.424 0c0 .5-.163.914-.488 1.242-.326.328-.739.492-1.239.492-.5 0-.913-.164-1.238-.492-.326-.328-.488-.742-.488-1.242s.162-.912.488-1.235c.325-.323.738-.484 1.238-.484s.913.161 1.239.484c.325.323.488.735.488 1.235zm5.424 0c0 .5-.163.914-.489 1.242-.325.328-.738.492-1.238.492s-.913-.164-1.238-.492c-.326-.328-.489-.742-.489-1.242s.163-.912.489-1.235c.325-.323.738-.484 1.238-.484s.913.161 1.238.484c.326.323.489.735.489 1.235z"/><g transform="translate(356 250)"><path d="M0 0h18v18H0z"/><mask id="h" fill="#fff"><use xlink:href="#g"/></mask><use fill="#000" fill-rule="nonzero" xlink:href="#g"/><g fill="#4A4A4F" mask="url(#h)"><path d="M0 0h18v18H0z"/></g></g><g transform="translate(314 250)"><path d="M0 0h18v18H0z"/><mask id="j" fill="#fff"><use xlink:href="#i"/></mask><g fill="#4A4A4F" mask="url(#j)"><path d="M0 0h18v18H0z"/></g></g><path fill="#5B5B66" fill-rule="nonzero" d="M68.11 243.675h4.197c.83 0 1.498.234 2.005.702.508.467.762 1.124.762 1.97 0 .729-.226 1.362-.679 1.902-.453.54-1.149.81-2.088.81h-2.933V253h-1.263v-9.325zm5.688 2.679c0-.686-.254-1.151-.761-1.396-.28-.132-.663-.197-1.15-.197h-2.513v3.23h2.514c.567 0 1.027-.12 1.38-.361.354-.241.53-.667.53-1.276zm3.387 4.837c0 .33.12.59.362.78.24.191.526.286.857.286.402 0 .79-.093 1.167-.279.635-.309.953-.815.953-1.517v-.92c-.14.088-.32.162-.54.222-.22.059-.436.101-.647.127l-.692.089c-.415.055-.726.141-.933.26-.352.199-.527.516-.527.952zm2.767-2.31c.263-.034.438-.145.527-.33.051-.102.076-.248.076-.439 0-.389-.138-.671-.415-.847-.278-.176-.674-.264-1.19-.264-.597 0-1.02.161-1.27.483-.14.178-.23.442-.273.793H76.34c.02-.838.293-1.42.815-1.748.523-.328 1.129-.492 1.819-.492.8 0 1.45.152 1.949.457.495.304.742.778.742 1.422v3.916c0 .119.025.214.073.286.049.072.151.108.308.108a2.744 2.744 0 0 0 .375-.038v.844c-.178.05-.314.082-.407.095-.093.013-.22.019-.38.019-.394 0-.68-.14-.857-.419-.094-.148-.16-.358-.197-.628-.233.304-.567.569-1.003.793a3.102 3.102 0 0 1-1.441.337c-.63 0-1.146-.192-1.546-.575-.4-.383-.6-.862-.6-1.438 0-.63.197-1.119.59-1.466.394-.347.91-.56 1.55-.641l1.821-.229zm4.066 1.986c.034.381.129.673.286.876.287.368.787.552 1.498.552a2.21 2.21 0 0 0 1.117-.276c.321-.184.482-.468.482-.853a.73.73 0 0 0-.387-.667c-.144-.081-.412-.174-.803-.278l-1.082-.274c-.58-.144-1.007-.305-1.282-.483-.491-.309-.737-.736-.737-1.282 0-.643.232-1.164.695-1.561.464-.398 1.087-.597 1.87-.597 1.024 0 1.762.3 2.215.901.284.381.421.792.413 1.232h-1.08a1.322 1.322 0 0 0-.272-.705c-.263-.3-.718-.45-1.365-.45-.432 0-.759.082-.98.247a.776.776 0 0 0-.334.654c0 .296.146.533.438.71.17.107.419.2.749.28l.755.184c.821.199 1.371.392 1.65.578.445.292.667.75.667 1.377 0 .605-.23 1.128-.689 1.568-.459.44-1.158.66-2.097.66-1.012 0-1.728-.23-2.15-.688-.42-.46-.646-1.028-.675-1.705h1.098zm6.3 0c.034.381.129.673.286.876.287.368.787.552 1.498.552a2.21 2.21 0 0 0 1.117-.276c.321-.184.482-.468.482-.853a.73.73 0 0 0-.387-.667c-.144-.081-.412-.174-.803-.278l-1.082-.274c-.58-.144-1.007-.305-1.282-.483-.491-.309-.737-.736-.737-1.282 0-.643.232-1.164.695-1.561.464-.398 1.087-.597 1.87-.597 1.024 0 1.762.3 2.215.901.284.381.421.792.413 1.232h-1.08a1.322 1.322 0 0 0-.272-.705c-.263-.3-.718-.45-1.365-.45-.432 0-.759.082-.98.247a.776.776 0 0 0-.334.654c0 .296.146.533.438.71.17.107.419.2.749.28l.755.184c.821.199 1.371.392 1.65.578.445.292.667.75.667 1.377 0 .605-.23 1.128-.689 1.568-.459.44-1.158.66-2.097.66-1.012 0-1.728-.23-2.15-.688-.42-.46-.646-1.028-.675-1.705h1.098zm6.148-4.665l1.307 5.357 1.327-5.357h1.282l1.333 5.325 1.39-5.325h1.143L102.274 253h-1.187l-1.384-5.262-1.34 5.262h-1.186l-1.962-6.798h1.25zm11.359 6.062c.757 0 1.277-.287 1.558-.86a4.285 4.285 0 0 0 .422-1.914c0-.635-.101-1.151-.305-1.55-.321-.625-.875-.939-1.663-.939-.698 0-1.206.267-1.523.8-.317.533-.476 1.177-.476 1.93 0 .724.159 1.327.476 1.809.317.482.82.724 1.51.724zm.044-6.26c.876 0 1.617.293 2.222.877.605.584.908 1.443.908 2.577 0 1.096-.267 2.002-.8 2.717-.533.715-1.36 1.073-2.482 1.073-.935 0-1.678-.317-2.228-.95-.55-.632-.825-1.482-.825-2.548 0-1.143.29-2.052.87-2.73.579-.677 1.358-1.015 2.335-1.015zm4.32.198h1.085v1.174c.089-.229.307-.507.654-.835a1.695 1.695 0 0 1 1.2-.492l.108.007c.05.004.137.012.26.025v1.206a1.707 1.707 0 0 0-.375-.032c-.575 0-1.017.186-1.326.556-.31.37-.464.796-.464 1.279V253h-1.142v-6.798zm4.82 3.478c0 .728.155 1.337.464 1.828.309.491.804.737 1.485.737.53 0 .964-.228 1.305-.683.34-.455.51-1.107.51-1.958 0-.859-.175-1.495-.526-1.907-.351-.413-.785-.62-1.301-.62-.576 0-1.042.22-1.4.66-.358.44-.536 1.088-.536 1.943zm1.72-3.599c.521 0 .957.11 1.308.33.204.127.434.35.692.667v-3.434h1.099V253h-1.029v-.946c-.266.42-.582.722-.946.908-.364.186-.78.28-1.25.28-.758 0-1.413-.32-1.968-.956-.554-.637-.831-1.484-.831-2.542 0-.99.252-1.849.758-2.574.506-.726 1.228-1.089 2.168-1.089z"/><g fill-rule="nonzero"><path fill="#20123A" d="M69.241 207.134c0 .432.158.772.473 1.021.316.25.69.374 1.121.374.526 0 1.035-.122 1.527-.365.83-.404 1.245-1.066 1.245-1.984v-1.204a2.556 2.556 0 0 1-.705.29c-.288.078-.57.133-.847.167l-.905.116c-.542.072-.949.185-1.22.34-.46.26-.689.675-.689 1.245zm3.62-3.021c.342-.044.572-.188.688-.432.067-.133.1-.324.1-.573 0-.509-.181-.878-.544-1.108-.362-.23-.881-.344-1.556-.344-.78 0-1.334.21-1.66.63-.183.233-.302.579-.357 1.038h-1.395c.028-1.095.383-1.858 1.067-2.287.683-.429 1.476-.643 2.378-.643 1.046 0 1.895.2 2.548.598.648.398.972 1.018.972 1.86v5.12c0 .156.031.28.095.374.064.094.198.141.403.141.066 0 .14-.004.224-.012.083-.008.171-.02.265-.037v1.104l-.252.067a2.773 2.773 0 0 1-.279.057 3.882 3.882 0 0 1-.498.025c-.515 0-.888-.183-1.12-.548-.122-.194-.208-.468-.258-.822-.304.399-.741.745-1.311 1.038-.57.293-1.198.44-1.885.44-.824 0-1.498-.25-2.02-.751-.524-.501-.785-1.128-.785-1.88 0-.825.257-1.464.772-1.918.514-.454 1.19-.733 2.025-.838l2.382-.3zm5.577 2.598c.045.498.17.88.374 1.145.376.482 1.03.723 1.959.723.553 0 1.04-.12 1.46-.361.422-.241.632-.613.632-1.117 0-.382-.169-.672-.507-.872-.191-.108-.55-.231-1.074-.37l-1.39-.352c-.759-.188-1.318-.398-1.678-.63-.642-.405-.963-.963-.963-1.677 0-.841.303-1.522.91-2.042.605-.52 1.42-.78 2.444-.78 1.34 0 2.305.392 2.897 1.178.37.498.55 1.035.54 1.61H82.63a1.729 1.729 0 0 0-.357-.92c-.343-.394-.938-.59-1.784-.59-.565 0-.992.108-1.283.323-.29.216-.435.501-.435.855 0 .388.19.698.572.93.222.139.548.26.98.365l.988.241c1.073.26 1.793.512 2.158.755.58.382.871.983.871 1.802 0 .791-.3 1.475-.9 2.05-.6.576-1.515.863-2.744.863-1.322 0-2.259-.3-2.81-.9-.55-.6-.845-1.344-.884-2.23h1.436zm8.758.423c0 .432.158.772.473 1.021.315.25.689.374 1.12.374.526 0 1.035-.122 1.528-.365.83-.404 1.245-1.066 1.245-1.984v-1.204a2.556 2.556 0 0 1-.706.29c-.287.078-.57.133-.846.167l-.905.116c-.542.072-.95.185-1.22.34-.46.26-.69.675-.69 1.245zm3.619-3.021c.343-.044.573-.188.689-.432.066-.133.1-.324.1-.573 0-.509-.182-.878-.544-1.108-.363-.23-.881-.344-1.557-.344-.78 0-1.333.21-1.66.63-.182.233-.301.579-.357 1.038h-1.394c.027-1.095.383-1.858 1.066-2.287.684-.429 1.477-.643 2.379-.643 1.046 0 1.895.2 2.548.598.647.398.971 1.018.971 1.86v5.12c0 .156.032.28.096.374.063.094.197.141.402.141.067 0 .141-.004.224-.012.083-.008.172-.02.266-.037v1.104l-.252.067a2.773 2.773 0 0 1-.28.057 3.882 3.882 0 0 1-.497.025c-.515 0-.889-.183-1.121-.548-.122-.194-.207-.468-.257-.822-.305.399-.742.745-1.312 1.038-.57.293-1.198.44-1.884.44-.825 0-1.498-.25-2.021-.751-.523-.501-.785-1.128-.785-1.88 0-.825.258-1.464.772-1.918.515-.454 1.19-.733 2.026-.838l2.382-.3zm5.636 1.046c0 .952.202 1.748.606 2.39.404.642 1.052.963 1.943.963.691 0 1.26-.297 1.705-.892.446-.595.669-1.449.669-2.56 0-1.124-.23-1.956-.69-2.495-.459-.54-1.026-.81-1.701-.81-.753 0-1.363.288-1.83.864-.468.575-.702 1.422-.702 2.54zm2.25-4.707c.68 0 1.25.144 1.71.432.265.166.567.456.904.871v-4.49h1.436V209.5h-1.344v-1.237c-.349.548-.761.944-1.237 1.187-.476.244-1.021.365-1.635.365-.99 0-1.849-.416-2.574-1.249-.725-.833-1.087-1.94-1.087-3.324 0-1.295.33-2.417.992-3.366.661-.95 1.606-1.424 2.835-1.424zm9.786 8.085c.99 0 1.67-.375 2.038-1.125.368-.75.552-1.584.552-2.502 0-.83-.133-1.506-.398-2.026-.42-.819-1.146-1.228-2.175-1.228-.913 0-1.577.348-1.992 1.046-.415.697-.623 1.538-.623 2.523 0 .946.208 1.735.623 2.366.415.63 1.073.946 1.975.946zm.058-8.184c1.146 0 2.114.381 2.906 1.145.791.764 1.187 1.887 1.187 3.37 0 1.433-.349 2.618-1.046 3.553-.697.935-1.78 1.403-3.246 1.403-1.223 0-2.194-.414-2.913-1.241-.72-.828-1.08-1.938-1.08-3.333 0-1.494.38-2.684 1.138-3.57.758-.885 1.776-1.327 3.054-1.327zm6.168-2.225h1.51v2.482h1.42v1.22h-1.42v5.802c0 .31.106.518.316.623.116.06.31.091.581.091l.233-.004.29-.02v1.178c-.171.05-.35.086-.535.108a5.09 5.09 0 0 1-.602.033c-.697 0-1.17-.178-1.42-.535-.249-.357-.373-.82-.373-1.39v-5.886h-1.204v-1.22h1.204v-2.482zm3.76 10.193l5.271-6.375h-4.88v-1.336h6.889v1.22l-5.238 6.334h5.396v1.336h-7.438v-1.179zm9.206-11.015h1.494V209.5h-1.494v-12.194zm7.437 3.105c.631 0 1.243.148 1.835.444.592.296 1.043.679 1.353 1.15.256.384.439.823.549 1.317l.048.251c.089.41.133 1.063.133 1.96h-6.516c.028.901.24 1.625.64 2.17.398.545 1.015.818 1.85.818.78 0 1.403-.258 1.868-.772.266-.3.454-.645.564-1.038h1.47c-.04.326-.168.69-.386 1.091-.219.402-.464.73-.735.984-.454.443-1.015.742-1.685.897-.36.088-.766.132-1.22.132-1.107 0-2.045-.402-2.814-1.207-.77-.806-1.154-1.933-1.154-3.383 0-1.428.387-2.587 1.162-3.478.775-.89 1.788-1.336 3.038-1.336zm2.383 3.934c-.061-.647-.202-1.165-.424-1.552-.41-.72-1.093-1.08-2.05-1.08-.686 0-1.262.249-1.727.744-.465.495-.71 1.125-.738 1.888h4.939zm3.411-3.735h1.42v1.536c.116-.3.4-.663.855-1.092.453-.429.976-.643 1.568-.643l.142.008.34.033v1.577a2.232 2.232 0 0 0-.49-.041c-.752 0-1.33.242-1.735.726a2.535 2.535 0 0 0-.606 1.673v5.113h-1.494v-8.89z"/><path fill="#5B5B66" d="M69.361 180.675v5.764c0 .677.127 1.24.381 1.688.377.678 1.012 1.016 1.904 1.016 1.071 0 1.799-.366 2.184-1.098.207-.398.311-.933.311-1.606v-5.764h1.282v5.237c0 1.147-.154 2.03-.463 2.647-.567 1.126-1.638 1.689-3.212 1.689-1.574 0-2.643-.563-3.206-1.689-.308-.618-.463-1.5-.463-2.647v-5.237h1.282zm8.344 7.192c.034.381.13.673.286.876.288.368.787.552 1.498.552a2.21 2.21 0 0 0 1.117-.276c.322-.184.483-.468.483-.853a.73.73 0 0 0-.388-.667c-.144-.081-.412-.174-.802-.278l-1.083-.274c-.58-.144-1.007-.305-1.282-.483-.491-.309-.736-.736-.736-1.282 0-.643.231-1.164.695-1.561.463-.398 1.086-.597 1.869-.597 1.024 0 1.763.3 2.215.901.284.381.421.792.413 1.232h-1.08a1.322 1.322 0 0 0-.272-.705c-.262-.3-.717-.45-1.365-.45-.431 0-.758.082-.98.247a.776.776 0 0 0-.334.654c0 .296.146.533.438.71.17.107.42.2.75.28l.755.184c.82.199 1.37.392 1.65.578.444.292.666.75.666 1.377 0 .605-.23 1.128-.688 1.568-.46.44-1.159.66-2.098.66-1.012 0-1.728-.23-2.149-.688-.42-.46-.646-1.028-.676-1.705h1.098zm8.452-4.818c.483 0 .95.114 1.403.34.453.226.798.52 1.035.88.19.285.328.61.412.975l.045.224c.067.313.101.812.101 1.498H84.17c.021.69.184 1.243.49 1.66.304.417.776.625 1.415.625.596 0 1.072-.197 1.428-.59a1.99 1.99 0 0 0 .431-.794h1.124c-.03.25-.128.528-.295.835a2.969 2.969 0 0 1-.562.752 2.663 2.663 0 0 1-1.288.686 3.914 3.914 0 0 1-.934.101 2.863 2.863 0 0 1-2.151-.923c-.589-.616-.883-1.478-.883-2.587 0-1.092.296-1.978.889-2.66.592-.681 1.367-1.022 2.323-1.022zm1.822 3.01c-.047-.496-.155-.892-.324-1.188-.313-.55-.836-.825-1.568-.825-.524 0-.965.19-1.32.568-.355.379-.544.86-.565 1.444h3.777zm2.409-2.857h1.085v1.174c.09-.229.307-.507.654-.835a1.695 1.695 0 0 1 1.2-.492l.108.007c.05.004.137.012.26.025v1.206a1.707 1.707 0 0 0-.375-.032c-.575 0-1.017.186-1.326.556-.31.37-.464.796-.464 1.279V190h-1.142v-6.798zm4.097 0h1.086v.965c.321-.398.662-.684 1.022-.857.36-.174.76-.26 1.2-.26.964 0 1.616.336 1.954 1.009.187.368.28.895.28 1.58V190h-1.162v-4.285c0-.414-.061-.749-.184-1.003-.203-.423-.571-.634-1.105-.634-.27 0-.493.027-.666.082-.313.093-.588.28-.825.559-.19.224-.314.456-.372.695-.057.239-.085.58-.085 1.025V190h-1.143v-6.798zm7.906 4.989c0 .33.12.59.362.78.241.191.527.286.857.286.402 0 .791-.093 1.168-.279.635-.309.952-.815.952-1.517v-.92c-.14.088-.32.162-.54.222-.22.059-.435.101-.647.127l-.692.089c-.415.055-.726.141-.933.26-.351.199-.527.516-.527.952zm2.768-2.31c.262-.034.438-.145.527-.33.05-.102.076-.248.076-.439 0-.389-.139-.671-.416-.847-.277-.176-.674-.264-1.19-.264-.597 0-1.02.161-1.27.483-.14.178-.23.442-.273.793h-1.066c.021-.838.293-1.42.816-1.748.522-.328 1.128-.492 1.818-.492.8 0 1.45.152 1.949.457.495.304.743.778.743 1.422v3.916c0 .119.024.214.073.286.048.072.15.108.307.108a2.744 2.744 0 0 0 .375-.038v.844c-.178.05-.313.082-.406.095-.093.013-.22.019-.381.019-.394 0-.68-.14-.857-.419-.093-.148-.159-.358-.197-.628-.233.304-.567.569-1.003.793a3.102 3.102 0 0 1-1.44.337c-.631 0-1.146-.192-1.546-.575-.4-.383-.6-.862-.6-1.438 0-.63.197-1.119.59-1.466.394-.347.91-.56 1.549-.641l1.822-.229zm16.846-2.832c.483 0 .95.114 1.403.34.453.226.798.52 1.035.88.19.285.328.61.412.975l.045.224c.068.313.101.812.101 1.498h-4.983c.022.69.185 1.243.49 1.66.304.417.776.625 1.415.625.596 0 1.073-.197 1.428-.59a1.99 1.99 0 0 0 .432-.794h1.123c-.03.25-.128.528-.295.835a2.969 2.969 0 0 1-.562.752 2.663 2.663 0 0 1-1.288.686 3.914 3.914 0 0 1-.933.101 2.863 2.863 0 0 1-2.152-.923c-.589-.616-.883-1.478-.883-2.587 0-1.092.297-1.978.889-2.66.592-.681 1.367-1.022 2.323-1.022zm-6.446 0c.914 0 1.536.33 1.866.99.178.356.267.834.267 1.435V190h-1.187v-4.723c0-.452-.113-.763-.34-.933a1.344 1.344 0 0 0-.828-.254c-.448 0-.835.15-1.158.451-.324.3-.486.802-.486 1.504V190h-1.162v-4.437c0-.461-.055-.798-.165-1.01-.173-.317-.497-.475-.97-.475-.432 0-.825.167-1.178.501-.354.334-.53.94-.53 1.816V190h-1.143v-6.798h1.13v.965c.27-.335.516-.578.736-.73a2.214 2.214 0 0 1 1.283-.388c.541 0 .977.134 1.307.4.186.153.356.377.508.673a2.47 2.47 0 0 1 .895-.81 2.497 2.497 0 0 1 1.155-.263zm6.376.997c-.524 0-.964.19-1.32.568-.355.379-.544.86-.565 1.444h3.777c-.046-.495-.154-.89-.324-1.187-.313-.55-.835-.825-1.568-.825z"/></g><g><path fill="#FFF" d="M51 103h347v62H51z"/><g transform="translate(356 125)"><path d="M0 0h18v18H0z"/><mask id="l" fill="#fff"><use xlink:href="#k"/></mask><use fill="#000" fill-rule="nonzero" xlink:href="#k"/><g fill="#4A4A4F" mask="url(#l)"><path d="M0 0h18v18H0z"/></g></g><path fill="#592ACB" fill-rule="nonzero" d="M68.096 135.265h1.494v4.548c.354-.448.672-.763.954-.946.482-.315 1.082-.473 1.802-.473 1.29 0 2.163.451 2.623 1.353.249.493.373 1.176.373 2.05v5.703h-1.535v-5.603c0-.653-.083-1.132-.25-1.436-.27-.487-.78-.73-1.527-.73-.62 0-1.181.213-1.685.639-.503.426-.755 1.23-.755 2.415v4.715h-1.494v-12.235zm9.753.863h1.51v2.482h1.42v1.22h-1.42v5.802c0 .31.106.518.316.623.117.06.31.091.581.091l.233-.004.29-.02v1.178c-.171.05-.35.086-.535.108a5.09 5.09 0 0 1-.602.033c-.697 0-1.17-.178-1.42-.535-.248-.357-.373-.82-.373-1.39v-5.886h-1.203v-1.22h1.203v-2.482zm4.723 0h1.511v2.482h1.42v1.22h-1.42v5.802c0 .31.105.518.315.623.117.06.31.091.581.091l.233-.004.29-.02v1.178c-.171.05-.35.086-.535.108a5.09 5.09 0 0 1-.602.033c-.697 0-1.17-.178-1.42-.535-.248-.357-.373-.82-.373-1.39v-5.886H81.37v-1.22h1.203v-2.482zm8.177 10.368c.697 0 1.276-.292 1.739-.876.462-.584.693-1.457.693-2.619 0-.708-.103-1.317-.307-1.826-.388-.98-1.096-1.47-2.125-1.47-1.035 0-1.744.518-2.125 1.553-.205.553-.308 1.256-.308 2.108 0 .686.103 1.27.308 1.752.387.918 1.095 1.378 2.125 1.378zm-3.869-7.845h1.453v1.18c.299-.405.625-.718.98-.939.503-.332 1.095-.498 1.776-.498 1.007 0 1.862.386 2.565 1.158.703.772 1.054 1.875 1.054 3.308 0 1.937-.506 3.32-1.519 4.15a3.432 3.432 0 0 1-2.241.789c-.67 0-1.232-.147-1.685-.44-.266-.166-.562-.451-.888-.855v4.54H86.88v-12.393zm10.46 6.06c.044.498.168.88.373 1.145.376.482 1.03.723 1.959.723.553 0 1.04-.12 1.46-.361.421-.241.632-.613.632-1.117 0-.382-.17-.672-.507-.872-.192-.108-.55-.231-1.074-.37l-1.391-.352c-.758-.188-1.317-.398-1.677-.63-.642-.405-.963-.963-.963-1.677 0-.841.303-1.522.91-2.042.605-.52 1.42-.78 2.444-.78 1.34 0 2.305.392 2.897 1.178.37.498.55 1.035.54 1.61h-1.412a1.729 1.729 0 0 0-.357-.92c-.343-.394-.938-.59-1.784-.59-.565 0-.992.108-1.283.323-.29.216-.436.501-.436.855 0 .388.191.698.573.93.221.139.548.26.98.365l.987.241c1.074.26 1.793.512 2.159.755.58.382.871.983.871 1.802 0 .791-.3 1.475-.9 2.05-.6.576-1.515.863-2.744.863-1.322 0-2.259-.3-2.81-.9-.55-.6-.845-1.344-.884-2.23h1.436zm8.4-5.985h1.735v1.81h-1.735v-1.81zm0 6.964h1.735v1.81h-1.735v-1.81zm6.707-10.384h1.261L109.84 147.5h-1.261l3.868-12.194zm4.723 0h1.262l-3.869 12.194h-1.261l3.868-12.194zm2.25.822h1.51v2.482h1.42v1.22h-1.42v5.802c0 .31.105.518.316.623.116.06.31.091.58.091l.233-.004.29-.02v1.178c-.17.05-.35.086-.535.108a5.09 5.09 0 0 1-.602.033c-.697 0-1.17-.178-1.419-.535-.25-.357-.374-.82-.374-1.39v-5.886h-1.203v-1.22h1.203v-2.482zm5.113 2.482l1.71 7.006 1.735-7.006h1.676l1.743 6.964 1.818-6.964h1.494l-2.581 8.89h-1.552l-1.81-6.881-1.751 6.881h-1.553l-2.565-8.89h1.636zm11.588.041h1.519v8.849h-1.52v-8.849zm0-3.345h1.519V137h-1.52v-1.694zm4.075.822h1.511v2.482h1.42v1.22h-1.42v5.802c0 .31.105.518.315.623.117.06.31.091.582.091l.232-.004.29-.02v1.178c-.171.05-.35.086-.535.108a5.09 5.09 0 0 1-.602.033c-.697 0-1.17-.178-1.42-.535-.248-.357-.373-.82-.373-1.39v-5.886h-1.203v-1.22h1.203v-2.482zm4.723 0h1.511v2.482h1.42v1.22h-1.42v5.802c0 .31.105.518.316.623.116.06.31.091.58.091l.233-.004.29-.02v1.178c-.17.05-.35.086-.535.108a5.09 5.09 0 0 1-.602.033c-.697 0-1.17-.178-1.419-.535-.25-.357-.374-.82-.374-1.39v-5.886h-1.203v-1.22h1.203v-2.482zm8.127 2.283c.63 0 1.242.148 1.834.444.592.296 1.044.679 1.353 1.15.257.384.44.823.55 1.317l.048.251c.089.41.133 1.063.133 1.96h-6.516c.027.901.24 1.625.639 2.17.398.545 1.015.818 1.851.818.78 0 1.403-.258 1.868-.772.265-.3.453-.645.564-1.038h1.47c-.04.326-.168.69-.387 1.091-.218.402-.463.73-.734.984-.454.443-1.016.742-1.685.897-.36.088-.767.132-1.22.132-1.107 0-2.045-.402-2.814-1.207-.77-.806-1.154-1.933-1.154-3.383 0-1.428.387-2.587 1.162-3.478.775-.89 1.787-1.336 3.038-1.336zm2.382 3.934c-.06-.647-.202-1.165-.423-1.552-.41-.72-1.093-1.08-2.05-1.08-.687 0-1.262.249-1.727.744-.465.495-.711 1.125-.739 1.888h4.94zm3.412-3.735h1.42v1.536c.115-.3.4-.663.854-1.092.454-.429.977-.643 1.57-.643l.14.008.34.033v1.577a2.232 2.232 0 0 0-.49-.041c-.752 0-1.33.242-1.734.726a2.535 2.535 0 0 0-.606 1.673v5.113h-1.494v-8.89zm5.976 7.08h1.735v1.81h-1.735v-1.81zm7.795-7.337c1.001 0 1.816.243 2.444.73.629.487 1.006 1.325 1.133 2.515h-1.452c-.089-.548-.29-1.003-.606-1.365-.316-.363-.822-.544-1.52-.544-.951 0-1.632.465-2.041 1.394-.266.604-.399 1.348-.399 2.233 0 .891.189 1.641.565 2.25.376.609.968.913 1.776.913.62 0 1.111-.19 1.474-.569.362-.379.612-.897.75-1.556h1.453c-.166 1.179-.58 2.04-1.245 2.586-.664.545-1.513.817-2.548.817-1.162 0-2.089-.424-2.78-1.274-.692-.85-1.038-1.91-1.038-3.183 0-1.56.379-2.775 1.137-3.644.758-.87 1.724-1.303 2.897-1.303zm8.6 8.184c.99 0 1.67-.375 2.037-1.125.368-.75.552-1.584.552-2.502 0-.83-.133-1.506-.398-2.026-.42-.819-1.146-1.228-2.175-1.228-.913 0-1.577.348-1.992 1.046-.415.697-.623 1.538-.623 2.523 0 .946.208 1.735.623 2.366.415.63 1.073.946 1.975.946zm.058-8.184c1.145 0 2.113.381 2.905 1.145.791.764 1.187 1.887 1.187 3.37 0 1.433-.349 2.618-1.046 3.553-.697.935-1.78 1.403-3.246 1.403-1.223 0-2.194-.414-2.913-1.241-.72-.828-1.08-1.938-1.08-3.333 0-1.494.38-2.684 1.138-3.57.758-.885 1.776-1.327 3.055-1.327zm5.868.257h1.478v1.262c.354-.438.675-.756.963-.955a2.896 2.896 0 0 1 1.676-.506c.709 0 1.279.174 1.71.523.244.199.465.492.664.88.332-.476.723-.83 1.17-1.059.45-.23.953-.344 1.512-.344 1.195 0 2.008.431 2.44 1.295.232.464.349 1.09.349 1.876v5.918h-1.553v-6.176c0-.592-.148-.999-.444-1.22-.296-.221-.657-.332-1.083-.332a2.15 2.15 0 0 0-1.515.59c-.423.392-.635 1.048-.635 1.967v5.171h-1.519v-5.802c0-.603-.072-1.043-.216-1.32-.227-.415-.65-.623-1.27-.623-.564 0-1.077.219-1.54.656-.462.437-.693 1.229-.693 2.374v4.715h-1.494v-8.89z"/><path fill="#5B5B66" fill-rule="nonzero" d="M68.606 118.675l1.758 7.586 2.108-7.586h1.37l2.108 7.586 1.758-7.586h1.384L76.642 128h-1.327l-2.151-7.731L70.999 128h-1.327l-2.437-9.325h1.371zm13.904 2.374c.483 0 .95.114 1.403.34.453.226.798.52 1.035.88.19.285.328.61.413.975l.044.224c.068.313.102.812.102 1.498h-4.983c.02.69.184 1.243.488 1.66.305.417.777.625 1.416.625.597 0 1.073-.197 1.428-.59a1.99 1.99 0 0 0 .432-.794h1.123c-.03.25-.128.528-.295.835a2.969 2.969 0 0 1-.562.752 2.663 2.663 0 0 1-1.288.686 3.914 3.914 0 0 1-.933.101 2.863 2.863 0 0 1-2.152-.923c-.588-.616-.882-1.478-.882-2.587 0-1.092.296-1.978.888-2.66.593-.681 1.367-1.022 2.323-1.022zm1.822 3.01c-.046-.496-.154-.892-.324-1.188-.313-.55-.835-.825-1.567-.825-.525 0-.965.19-1.32.568-.356.379-.544.86-.566 1.444h3.777zm2.289-5.415h1.11v3.383c.25-.326.548-.575.895-.746a2.516 2.516 0 0 1 1.13-.257c.847 0 1.533.29 2.06.873.527.582.79 1.44.79 2.574 0 1.075-.26 1.967-.78 2.678-.52.711-1.242 1.067-2.165 1.067-.516 0-.952-.125-1.308-.375-.211-.148-.438-.385-.679-.71V128h-1.053v-9.356zm2.97 8.563c.618 0 1.08-.246 1.387-.737.307-.49.46-1.138.46-1.942 0-.715-.153-1.308-.46-1.778-.307-.47-.758-.704-1.355-.704-.52 0-.977.192-1.368.578-.391.385-.587 1.02-.587 1.904 0 .639.08 1.157.241 1.555.3.749.861 1.124 1.682 1.124zm11.788-3.028l-1.416-4.12-1.504 4.12h2.92zm-2.076-5.504h1.428l3.384 9.325h-1.384l-.946-2.793h-3.688L97.087 128h-1.294l3.51-9.325zm6.332 6.005c0 .728.154 1.337.463 1.828.31.491.804.737 1.485.737.53 0 .964-.228 1.305-.683.34-.455.51-1.107.51-1.958 0-.859-.175-1.495-.526-1.907-.351-.413-.785-.62-1.301-.62-.576 0-1.042.22-1.4.66-.357.44-.536 1.088-.536 1.943zm1.72-3.599c.52 0 .956.11 1.308.33.203.127.433.35.691.667v-3.434h1.099V128h-1.029v-.946c-.266.42-.582.722-.945.908-.364.186-.781.28-1.251.28-.757 0-1.413-.32-1.968-.956-.554-.637-.831-1.484-.831-2.542 0-.99.253-1.849.758-2.574.506-.726 1.229-1.089 2.168-1.089zm5.31 3.6c0 .727.154 1.336.463 1.827.309.491.804.737 1.485.737.53 0 .964-.228 1.305-.683.34-.455.51-1.107.51-1.958 0-.859-.175-1.495-.526-1.907-.351-.413-.785-.62-1.301-.62-.576 0-1.042.22-1.4.66-.357.44-.536 1.088-.536 1.943zm1.72-3.6c.52 0 .956.11 1.308.33.203.127.433.35.691.667v-3.434h1.099V128h-1.029v-.946c-.266.42-.582.722-.946.908-.363.186-.78.28-1.25.28-.757 0-1.413-.32-1.968-.956-.554-.637-.831-1.484-.831-2.542 0-.99.253-1.849.758-2.574.506-.726 1.229-1.089 2.168-1.089zm4.618.12h1.085v1.175c.09-.229.307-.507.654-.835a1.695 1.695 0 0 1 1.2-.492l.108.007c.05.004.137.012.26.025v1.206a1.707 1.707 0 0 0-.375-.032c-.575 0-1.017.186-1.326.556-.31.37-.464.796-.464 1.279V128h-1.142v-6.798zm6.928-.152c.483 0 .95.114 1.403.34.453.226.798.52 1.035.88.19.285.328.61.412.975l.045.224c.067.313.101.812.101 1.498h-4.983c.022.69.185 1.243.49 1.66.304.417.776.625 1.415.625.596 0 1.072-.197 1.428-.59a1.99 1.99 0 0 0 .432-.794h1.123c-.03.25-.128.528-.295.835a2.969 2.969 0 0 1-.562.752 2.663 2.663 0 0 1-1.288.686 3.914 3.914 0 0 1-.933.101 2.863 2.863 0 0 1-2.152-.923c-.589-.616-.883-1.478-.883-2.587 0-1.092.297-1.978.889-2.66.592-.681 1.367-1.022 2.323-1.022zm1.822 3.01c-.047-.496-.154-.892-.324-1.188-.313-.55-.835-.825-1.568-.825-.524 0-.964.19-1.32.568-.355.379-.544.86-.565 1.444h3.777zm3.056 1.808c.034.381.13.673.286.876.288.368.787.552 1.498.552a2.21 2.21 0 0 0 1.117-.276c.322-.184.483-.468.483-.853a.73.73 0 0 0-.388-.667c-.144-.081-.411-.174-.802-.278l-1.083-.274c-.58-.144-1.007-.305-1.282-.483-.49-.309-.736-.736-.736-1.282 0-.643.231-1.164.695-1.561.463-.398 1.086-.597 1.87-.597 1.023 0 1.762.3 2.214.901.284.381.422.792.413 1.232h-1.08a1.322 1.322 0 0 0-.272-.705c-.262-.3-.717-.45-1.365-.45-.431 0-.758.082-.98.247a.776.776 0 0 0-.334.654c0 .296.146.533.438.71.17.107.42.2.75.28l.755.184c.82.199 1.37.392 1.65.578.444.292.667.75.667 1.377 0 .605-.23 1.128-.69 1.568-.458.44-1.158.66-2.097.66-1.011 0-1.728-.23-2.149-.688-.42-.46-.646-1.028-.676-1.705h1.098zm6.3 0c.034.381.13.673.286.876.288.368.787.552 1.498.552a2.21 2.21 0 0 0 1.117-.276c.322-.184.483-.468.483-.853a.73.73 0 0 0-.388-.667c-.144-.081-.411-.174-.802-.278l-1.083-.274c-.58-.144-1.007-.305-1.282-.483-.49-.309-.736-.736-.736-1.282 0-.643.231-1.164.695-1.561.463-.398 1.086-.597 1.87-.597 1.023 0 1.762.3 2.214.901.284.381.422.792.413 1.232h-1.08a1.322 1.322 0 0 0-.272-.705c-.262-.3-.717-.45-1.365-.45-.431 0-.758.082-.98.247a.776.776 0 0 0-.334.654c0 .296.146.533.438.71.17.107.42.2.75.28l.755.184c.82.199 1.37.392 1.65.578.444.292.667.75.667 1.377 0 .605-.23 1.128-.69 1.568-.458.44-1.158.66-2.097.66-1.011 0-1.728-.23-2.149-.688-.42-.46-.646-1.028-.676-1.705h1.098z"/></g></g><path stroke="#E0E0E3" stroke-linecap="square" d="M67 165h314.5M67 228h314.5" mask="url(#b)"/><path fill="#B933E1" d="M224.5 59a9.5 9.5 0 0 1 9.5 9.5v4c0 .168-.004.335-.013.5H235a4 4 0 0 1 4 4v12a4 4 0 0 1-4 4h-21a4 4 0 0 1-4-4V77a4 4 0 0 1 4-4h1.013a9.655 9.655 0 0 1-.013-.5v-4a9.5 9.5 0 0 1 9.5-9.5zm0 5a4.5 4.5 0 0 0-4.495 4.288L220 68.5V73h9v-4.5a4.5 4.5 0 0 0-4.5-4.5z" mask="url(#b)"/><path stroke="#EDEDF0" stroke-linecap="square" stroke-width="2" d="M0 289.5h448"/></g></svg>